:SAMPLES-PER-SECOND 30
:FULLY-SPECIFIED
:DEGREES
312
root  -1.97914 38.9436 -46.0017 -2.81635 -7.99715 6.40159
RightUpLeg  17.8389 -8.27019 -15.2509
RightLeg  19.9911 -24.4089 -9.5995
RightFoot  -5.69687 -1.52329 29.9401
RightToes  -5.82094e-011 -1.98785e-016 -5.10186e-018
Spine  16.622 3.05877 4.52541
Spine1  0.953366 6.18267 -11.7403
HEad  -6.21722 -2.54611 -0.61125
LeftShoulder1  0.535469 1.59086 -21.5538
LeftArm  -32.2397 20.1197 -36.8408
LeftForeArm  94.1506 -70.8775 -21.6269
LeftHand  0.0970722 3.704 -8.50585
RightShoulder  3.33414 8.01196 22.7387
RightArm  -0.625191 -5.82512 29.3384
RightForeArm  21.1079 43.0554 9.04078
RightHand  -1.96737 8.05648 -17.2039
LeftUpLeg  -15.3329 10.5525 -3.79815
LeftLeg  18.5696 4.40092 1.97673
LeftFoot  -6.6324 0.340789 -7.2671
LeftToes  -8.4584e-011 5.90861e-011 8.40072e-012
313
root  -1.62905 38.9628 -45.0706 -3.9423 -10.7946 7.30313
RightUpLeg  13.8692 -7.67608 -18.3023
RightLeg  29.0218 -20.9152 -12.3369
RightFoot  -0.255759 -2.21974 22.9584
RightToes  -5.82094e-011 -1.98785e-016 -5.10186e-018
Spine  16.6855 3.29688 1.69212
Spine1  1.46168 5.46334 -10.3192
HEad  -5.21043 0.339327 -1.92885
LeftShoulder1  0.751158 0.840114 -21.8376
LeftArm  -31.8477 16.5544 -37.4184
LeftForeArm  95.5125 -71.5286 -22.4831
LeftHand  -0.00221324 4.9259 -8.33555
RightShoulder  3.23724 7.68668 22.7241
RightArm  0.126191 -7.99694 29.7838
RightForeArm  20.4221 40.8259 8.35625
RightHand  -1.9955 8.69159 -16.6684
LeftUpLeg  -13.0074 11.8508 -4.72519
LeftLeg  19.4103 5.64444 2.53834
LeftFoot  -8.86183 0.203452 -6.94353
LeftToes  -8.4584e-011 5.90861e-011 8.40072e-012
314
root  -1.33808 38.898 -44.1805 -4.80689 -13.542 7.84468
RightUpLeg  7.98559 -6.32236 -19.8156
RightLeg  39.431 -17.659 -15.1774
RightFoot  3.64971 -1.89389 14.2971
RightToes  -5.82094e-011 -1.98785e-016 -5.10186e-018
Spine  16.6061 3.31478 -1.37056
Spine1  1.84685 4.2671 -8.537
HEad  -5.06118 3.93274 -3.39218
LeftShoulder1  0.94721 0.0690866 -21.1884
LeftArm  -31.623 12.9651 -38.685
LeftForeArm  96.2481 -72.2818 -23.6753
LeftHand  -0.0298438 5.28205 -8.32874
RightShoulder  3.07094 6.96237 23.158
RightArm  1.46478 -9.83948 29.8083
RightForeArm  18.2328 37.8311 7.57825
RightHand  -2.22737 8.74686 -18.489
LeftUpLeg  -11.4783 13.0061 -5.28062
LeftLeg  21.1042 6.8357 3.23852
LeftFoot  -11.6134 0.04831 -7.35928
LeftToes  -8.4584e-011 5.90861e-011 8.40072e-012
315
root  -1.07921 38.8434 -43.2268 -5.87163 -16.5109 8.18736
RightUpLeg  2.64931 -4.83927 -20.59
RightLeg  46.2655 -12.244 -13.5914
RightFoot  2.54356 -1.59981 13.1054
RightToes  -5.82094e-011 -1.98785e-016 -5.10186e-018
Spine  16.4152 3.14443 -4.77214
Spine1  2.64687 2.64049 -5.65279
HEad  -5.27959 8.51042 -5.24369
LeftShoulder1  1.17391 -0.833722 -20.6121
LeftArm  -31.617 9.96515 -39.9249
LeftForeArm  98.0601 -73.9816 -26.6863
LeftHand  -0.0677524 5.76592 -8.06136
RightShoulder  2.97953 6.69847 23.0169
RightArm  2.87657 -12.0087 29.3872
RightForeArm  15.2738 34.9265 6.95051
RightHand  -2.24516 8.21262 -19.3171
LeftUpLeg  -9.39256 14.0773 -5.52345
LeftLeg  22.357 8.20847 4.02124
LeftFoot  -14.1212 -0.106903 -8.05039
LeftToes  -8.4584e-011 5.90861e-011 8.40072e-012
316
root  -0.853201 38.9155 -42.0789 -6.33909 -19.0042 7.59227
RightUpLeg  -2.44702 -4.40253 -19.7594
RightLeg  49.7661 -6.37125 -8.41322
RightFoot  -0.981445 -1.02337 11.26
RightToes  -5.82094e-011 -1.98785e-016 -5.10186e-018
Spine  15.6381 2.28461 -7.15778
Spine1  3.2987 0.551525 -2.13017
HEad  -5.67094 12.9693 -7.29717
LeftShoulder1  1.27525 -1.23137 -20.4931
LeftArm  -31.1852 6.06231 -40.7512
LeftForeArm  100.539 -75.0907 -29.0113
LeftHand  -0.0229836 5.18375 -6.5217
RightShoulder  2.83695 6.22882 22.9615
RightArm  4.08013 -14.0064 28.5287
RightForeArm  12.9885 31.0283 6.07173
RightHand  -2.2748 8.36114 -19.3627
LeftUpLeg  -6.72851 14.7665 -5.05551
LeftLeg  22.2203 9.66907 4.64957
LeftFoot  -15.8784 -0.201781 -7.41191
LeftToes  -8.4584e-011 5.90861e-011 8.40072e-012
317
root  -0.700093 38.8956 -40.8938 -6.208 -20.8613 6.82683
RightUpLeg  -7.46137 -5.33925 -18.4047
RightLeg  51.1926 -4.20526 -5.9783
RightFoot  -2.05438 -1.06406 12.8938
RightToes  -5.82094e-011 -1.98785e-016 -5.10186e-018
Spine  14.4224 1.09458 -9.82975
Spine1  3.88458 -1.88275 1.53958
HEad  -6.34303 18.0424 -9.26982
LeftShoulder1  1.50597 -2.27467 -19.602
LeftArm  -31.2796 1.85198 -42.2575
LeftForeArm  103.823 -76.1241 -31.5293
LeftHand  0.0464237 4.02966 -6.28251
RightShoulder  2.65739 5.56606 23.1293
RightArm  5.07917 -16.1199 27.0564
RightForeArm  8.80352 26.8635 5.30348
RightHand  -2.48532 8.5318 -20.8224
LeftUpLeg  -4.86746 14.8015 -4.68197
LeftLeg  22.655 11.2524 5.44002
LeftFoot  -17.683 -0.346199 -8.16687
LeftToes  -8.4584e-011 5.90861e-011 8.40072e-012
318
root  -0.596795 38.8791 -39.6086 -5.90141 -22.6925 6.21919
RightUpLeg  -12.4114 -6.9413 -16.7566
RightLeg  50.6204 -3.98979 -5.55203
RightFoot  -4.42923 -0.860816 13.6579
RightToes  -5.82094e-011 -1.98785e-016 -5.10186e-018
Spine  13.3687 -0.0207331 -12.9053
Spine1  3.88306 -4.24935 5.75029
HEad  -7.14231 22.5555 -11.234
LeftShoulder1  1.82143 -3.75208 -18.5245
LeftArm  -30.8762 -2.15227 -43.2824
LeftForeArm  106.726 -77.308 -35.0942
LeftHand  0.0479714 3.96744 -6.03901
RightShoulder  2.38094 4.59499 23.2292
RightArm  5.50643 -18.728 25.1802
RightForeArm  3.5979 22.8738 4.73395
RightHand  -2.78459 8.7843 -22.8845
LeftUpLeg  -2.72225 14.6615 -4.6335
LeftLeg  22.3751 12.9959 6.13625
LeftFoot  -19.0503 -0.439341 -8.20471
LeftToes  -8.4584e-011 5.90861e-011 8.40072e-012
